<?xml version="1.0" encoding="UTF-8" standalone="no"?>
<!-- Created with Inkscape (http://www.inkscape.org/) -->

<svg
   width="1402"
   height="714"
   viewBox="0 0 370.94582 188.9125"
   version="1.1"
   id="svg1"
   xml:space="preserve"
   inkscape:version="1.3.2 (1:1.3.2+202311252150+091e20ef0f)"
   sodipodi:docname="seqera_logo_color_darkbg.svg"
   xmlns:inkscape="http://www.inkscape.org/namespaces/inkscape"
   xmlns:sodipodi="http://sodipodi.sourceforge.net/DTD/sodipodi-0.dtd"
   xmlns="http://www.w3.org/2000/svg"
   xmlns:svg="http://www.w3.org/2000/svg"><sodipodi:namedview
     id="namedview1"
     pagecolor="#ffffff"
     bordercolor="#000000"
     borderopacity="0.25"
     inkscape:showpageshadow="2"
     inkscape:pageopacity="0.0"
     inkscape:pagecheckerboard="0"
     inkscape:deskcolor="#d1d1d1"
     inkscape:document-units="mm"
     inkscape:zoom="0.39598415"
     inkscape:cx="483.60522"
     inkscape:cy="-89.650053"
     inkscape:window-width="1920"
     inkscape:window-height="1128"
     inkscape:window-x="0"
     inkscape:window-y="0"
     inkscape:window-maximized="1"
     inkscape:current-layer="layer1" /><defs
     id="defs1" /><g
     inkscape:label="Layer 1"
     inkscape:groupmode="layer"
     id="layer1"><g
       id="g1"
       transform="matrix(0.238125,0,0,0.238125,6.0457292,34.925)"><path
         class="st0"
         d="m 337.2,254.4 0.4,0.1 0.4,0.1 0.3,0.2 0.3,0.2 0.3,0.2 0.3,0.2 0.3,0.2 0.3,0.2 0.3,0.2 0.3,0.2 0.3,0.3 0.2,0.3 0.2,0.3 0.2,0.3 0.2,0.3 0.2,0.3 0.2,0.3 0.2,0.3 0.1,0.3 0.1,0.3 0.1,0.4 0.1,0.4 0.1,0.4 0.1,0.4 v 0.4 0.4 0.4 0.4 0.4 0.4 l -0.1,0.4 -0.1,0.4 -0.1,0.4 -0.1,0.3 -0.1,0.4 -0.1,0.3 -0.2,0.3 -0.2,0.3 -0.2,0.3 -0.2,0.3 -0.2,0.3 -0.2,0.3 -0.2,0.3 -0.3,0.3 -0.3,0.3 -0.3,0.2 -0.3,0.2 -0.3,0.2 -0.3,0.2 -0.3,0.2 -0.3,0.2 -0.3,0.1 -0.4,0.2 -0.4,0.1 -0.4,0.1 -0.4,0.1 -0.4,0.1 -0.4,0.1 h -0.4 -0.4 0.2 0.4 0.7 0.7 l 0.7,-0.1 0.7,-0.1 0.7,-0.1 0.7,-0.1 0.7,-0.1 0.7,-0.1 0.7,-0.2 0.7,-0.2 0.7,-0.2 0.6,-0.2 0.6,-0.2 0.6,-0.3 0.6,-0.3 0.6,-0.3 0.6,-0.3 0.6,-0.3 0.6,-0.3 0.6,-0.4 0.6,-0.4 0.6,-0.4 0.6,-0.4 0.5,-0.4 0.5,-0.4 0.5,-0.4 0.5,-0.5 0.5,-0.5 0.5,-0.5 0.5,-0.5 0.4,-0.5 0.4,-0.5 0.4,-0.5 0.4,-0.5 0.4,-0.5 0.4,-0.6 0.4,-0.6 0.3,-0.6 0.3,-0.6 0.3,-0.6 0.3,-0.6 0.3,-0.6 0.3,-0.6 0.3,-0.6 0.2,-0.6 0.2,-0.6 0.2,-0.7 0.2,-0.7 0.2,-0.7 0.2,-0.7 0.1,-0.7 0.1,-0.7 0.1,-0.7 0.1,-0.7 0.1,-0.7 v -0.7 -0.7 -0.7 -0.7 -0.7 -0.7 l -0.1,-0.7 -0.1,-0.7 -0.1,-0.7 -0.1,-0.7 -0.1,-0.7 -0.2,-0.7 -0.1,-0.5 h -24.3 -0.5 -57.5 L 337,254 Z"
         id="path1-3" /><path
         class="st1"
         d="m 375,260.4 -0.1,-0.9 -0.1,-0.8 -0.1,-0.9 -0.1,-0.8 -0.1,-0.8 -0.1,-0.8 -0.2,-0.8 -0.2,-0.8 -0.2,-0.8 -0.2,-0.8 -0.2,-0.8 -0.2,-0.8 -0.3,-0.8 -0.3,-0.8 -0.3,-0.8 -0.3,-0.8 -0.3,-0.8 -0.3,-0.8 -0.4,-0.8 -0.4,-0.8 -0.4,-0.8 -0.4,-0.8 -0.4,-0.7 -0.4,-0.7 -0.5,-0.7 -0.5,-0.7 -0.5,-0.7 -0.5,-0.7 -0.2,-0.2 h -7.5 l 0.1,0.5 0.2,0.7 0.1,0.7 0.1,0.7 0.1,0.7 0.1,0.7 0.1,0.7 v 0.7 0.7 0.7 0.7 0.7 0.7 l -0.1,0.7 -0.1,0.7 -0.1,0.7 -0.1,0.7 -0.1,0.7 -0.2,0.7 -0.2,0.7 -0.2,0.7 -0.2,0.7 -0.2,0.6 -0.2,0.6 -0.3,0.6 -0.3,0.6 -0.3,0.6 -0.3,0.6 -0.3,0.6 -0.3,0.6 -0.4,0.6 -0.4,0.6 -0.4,0.6 -0.4,0.5 -0.4,0.5 -0.4,0.5 -0.4,0.5 -0.5,0.5 -0.5,0.5 -0.5,0.5 -0.5,0.5 -0.5,0.5 -0.5,0.4 -0.5,0.4 -0.5,0.4 -0.6,0.4 -0.6,0.4 -0.6,0.4 -0.6,0.4 -0.6,0.3 -0.6,0.3 -0.6,0.3 -0.6,0.3 -0.6,0.3 -0.6,0.3 -0.6,0.2 -0.6,0.2 -0.6,0.2 -0.7,0.2 -0.7,0.2 -0.7,0.1 -0.7,0.1 -0.7,0.1 -0.7,0.1 -0.7,0.1 -0.7,0.1 H 335.7 335 334.3 125 V 303 h 209.7 0.9 0.8 l 0.9,-0.1 0.9,-0.1 0.9,-0.1 0.8,-0.1 0.9,-0.1 0.8,-0.1 0.8,-0.1 0.8,-0.2 0.8,-0.2 0.8,-0.2 0.8,-0.2 0.8,-0.2 0.8,-0.2 0.8,-0.3 0.8,-0.3 0.8,-0.3 0.8,-0.3 0.8,-0.3 0.8,-0.4 0.8,-0.4 0.8,-0.4 0.8,-0.4 0.7,-0.4 0.7,-0.4 0.7,-0.5 0.7,-0.5 0.7,-0.5 0.7,-0.5 0.7,-0.5 0.7,-0.5 0.7,-0.6 0.7,-0.6 0.6,-0.6 0.6,-0.6 0.6,-0.6 0.6,-0.6 0.6,-0.6 0.6,-0.6 0.6,-0.6 0.5,-0.7 0.5,-0.7 0.5,-0.7 0.5,-0.7 0.5,-0.7 0.5,-0.7 0.5,-0.7 0.4,-0.7 0.4,-0.7 0.4,-0.8 0.4,-0.8 0.4,-0.8 0.4,-0.8 0.3,-0.8 0.3,-0.8 0.3,-0.8 0.3,-0.8 0.3,-0.8 0.3,-0.8 0.2,-0.8 0.2,-0.8 0.2,-0.8 0.2,-0.8 0.2,-0.8 0.2,-0.8 0.1,-0.8 0.1,-0.9 0.1,-0.8 0.1,-0.9 0.1,-0.9 0.1,-0.8 v -0.9 -0.9 -0.9 z"
         id="path2" /><path
         class="st0"
         d="m 162.8,245.5 -0.4,-0.1 -0.4,-0.1 -0.3,-0.2 -0.3,-0.2 -0.3,-0.2 -0.3,-0.2 -0.3,-0.2 -0.3,-0.2 -0.3,-0.2 -0.3,-0.2 -0.3,-0.3 -0.2,-0.3 -0.2,-0.3 -0.2,-0.3 -0.2,-0.3 -0.2,-0.3 -0.2,-0.3 -0.2,-0.3 -0.1,-0.3 -0.1,-0.4 -0.1,-0.4 -0.1,-0.4 -0.1,-0.4 -0.1,-0.4 v -0.4 -0.4 -0.4 -0.4 -0.4 -0.4 l 0.1,-0.4 0.1,-0.4 0.1,-0.4 0.1,-0.4 0.1,-0.4 0.1,-0.3 0.2,-0.3 0.2,-0.3 0.2,-0.3 0.2,-0.3 0.2,-0.3 0.2,-0.3 0.2,-0.3 0.3,-0.3 0.3,-0.3 0.3,-0.2 0.3,-0.2 0.3,-0.2 0.3,-0.2 0.3,-0.2 0.3,-0.2 0.3,-0.1 0.4,-0.1 0.4,-0.1 0.4,-0.1 0.4,-0.1 0.4,-0.1 0.4,-0.1 h 0.4 0.4 0.1 -0.4 -0.7 l -0.7,0.1 -0.7,0.1 -0.7,0.1 -0.7,0.1 -0.7,0.1 -0.7,0.1 -0.7,0.2 -0.7,0.2 -0.7,0.2 -0.7,0.2 -0.6,0.2 -0.7,0.2 -0.6,0.3 -0.6,0.3 -0.6,0.3 -0.6,0.3 -0.6,0.3 -0.6,0.3 -0.6,0.4 -0.6,0.4 -0.6,0.4 -0.6,0.4 -0.6,0.4 -0.5,0.4 -0.5,0.4 -0.5,0.5 -0.5,0.5 -0.5,0.5 -0.5,0.5 -0.5,0.5 -0.5,0.5 -0.4,0.5 -0.4,0.5 -0.4,0.6 -0.4,0.6 -0.4,0.6 -0.4,0.6 -0.3,0.6 -0.3,0.6 -0.3,0.6 -0.3,0.6 -0.3,0.6 -0.3,0.6 -0.2,0.6 -0.2,0.6 -0.2,0.7 -0.2,0.7 -0.2,0.7 -0.2,0.7 -0.1,0.7 -0.1,0.7 -0.1,0.7 -0.1,0.7 -0.1,0.7 -0.1,0.7 v 0.7 0.7 0.7 0.7 l 0.1,0.7 0.1,0.7 0.1,0.7 0.1,0.7 0.1,0.7 0.1,0.7 0.2,0.7 0.1,0.5 h 24.3 0.5 57.5 l -59.7,-16.4 z"
         id="path3" /><path
         class="st2"
         d="m 125,239.6 v 0.9 l 0.1,0.9 0.1,0.9 0.1,0.8 0.1,0.8 0.1,0.8 0.2,0.9 0.2,0.8 0.2,0.8 0.2,0.8 0.2,0.8 0.3,0.8 0.3,0.8 0.3,0.8 0.3,0.8 0.3,0.8 0.3,0.8 0.3,0.8 0.4,0.8 0.4,0.8 0.4,0.8 0.4,0.8 0.4,0.7 0.4,0.7 0.5,0.7 0.5,0.7 0.5,0.7 0.5,0.7 0.2,0.2 h 7.5 l -0.1,-0.5 -0.2,-0.7 -0.1,-0.7 -0.1,-0.7 -0.1,-0.7 -0.1,-0.7 -0.1,-0.7 -0.1,-0.7 v -0.7 -0.7 -0.7 -0.7 l 0.1,-0.7 0.1,-0.7 0.1,-0.7 0.1,-0.7 0.1,-0.7 0.1,-0.7 0.2,-0.7 0.2,-0.7 0.2,-0.7 0.2,-0.7 0.2,-0.6 0.2,-0.6 0.3,-0.6 0.3,-0.6 0.3,-0.6 0.3,-0.6 0.3,-0.6 0.3,-0.6 0.4,-0.6 0.4,-0.6 0.4,-0.6 0.4,-0.6 0.4,-0.5 0.4,-0.5 0.5,-0.5 0.5,-0.5 0.5,-0.5 0.5,-0.5 0.5,-0.5 0.5,-0.5 0.5,-0.4 0.5,-0.4 0.6,-0.4 0.6,-0.4 0.6,-0.4 0.6,-0.4 0.6,-0.4 0.6,-0.3 0.6,-0.3 0.6,-0.3 0.6,-0.3 0.6,-0.3 0.6,-0.3 0.7,-0.2 0.6,-0.2 0.7,-0.2 0.7,-0.2 0.7,-0.2 0.7,-0.2 0.7,-0.1 0.7,-0.1 0.7,-0.1 0.7,-0.1 0.7,-0.1 0.7,-0.1 h 0.7 0.7 H 375 V 197 h -209.7 -0.9 -0.9 l -0.9,0.1 -0.9,0.1 -0.9,0.1 -0.8,0.1 -0.9,0.1 -0.8,0.1 -0.8,0.2 -0.9,0.2 -0.8,0.2 -0.8,0.2 -0.8,0.2 -0.8,0.2 -0.8,0.2 -0.8,0.3 -0.8,0.3 -0.8,0.3 -0.8,0.3 -0.8,0.3 -0.8,0.4 -0.8,0.4 -0.8,0.4 -0.8,0.4 -0.7,0.4 -0.7,0.4 -0.7,0.5 -0.7,0.5 -0.6,1.1 -0.7,0.5 -0.7,0.5 -0.7,0.5 -0.7,0.6 -0.7,0.6 -0.6,0.6 -0.6,0.6 -0.6,0.6 -0.6,0.6 -0.6,0.6 -0.6,0.6 -0.6,0.7 -0.5,0.7 -0.5,0.7 -0.5,0.7 -0.5,0.7 -0.5,0.7 -0.5,0.7 -0.5,0.7 -0.4,0.7 -0.4,0.7 -0.4,0.7 -0.4,0.8 -0.4,0.8 -0.4,0.8 -0.3,0.8 -0.3,0.8 -0.3,0.8 -0.3,0.8 -0.3,0.8 -0.3,0.8 -0.3,0.8 -0.2,0.8 -0.2,0.8 -0.2,0.8 -0.2,0.8 -0.2,0.8 -0.1,0.8 -0.1,0.9 -0.1,0.9 -0.1,0.9 -0.1,0.8 v 0.8 0.9 0.9 0.9 z"
         id="path4" /><path
         class="st0"
         d="m 162.8,173 -0.4,-0.1 -0.4,-0.1 -0.3,-0.2 -0.3,-0.2 -0.3,-0.2 -0.3,-0.2 -0.3,-0.2 -0.3,-0.2 -0.3,-0.2 -0.3,-0.2 -0.3,-0.3 -0.2,-0.3 -0.2,-0.3 -0.2,-0.3 -0.2,-0.3 -0.2,-0.3 -0.2,-0.3 -0.2,-0.3 -0.1,-0.3 -0.1,-0.4 -0.1,-0.4 -0.1,-0.4 -0.1,-0.4 -0.1,-0.4 -0.1,-0.4 v -0.4 -0.4 -0.4 -0.4 l 0.1,-0.4 0.1,-0.4 0.1,-0.4 0.1,-0.4 0.1,-0.4 0.1,-0.4 0.1,-0.3 0.2,-0.3 0.2,-0.3 0.2,-0.3 0.2,-0.3 0.2,-0.3 0.2,-0.3 0.2,-0.3 0.3,-0.3 0.3,-0.2 0.3,-0.2 0.3,-0.2 0.3,-0.2 0.3,-0.2 0.3,-0.2 0.3,-0.2 0.3,-0.2 0.4,-0.1 0.4,-0.1 0.4,-0.1 0.4,-0.1 0.4,-0.1 0.4,-0.1 h 0.4 0.4 0.1 -0.4 -0.7 -0.7 l -0.7,0.1 -0.7,0.1 -0.7,0.1 -0.7,0.1 -0.7,0.1 -0.7,0.2 -0.7,0.2 -0.7,0.2 -0.7,0.2 -0.6,0.2 -0.6,0.3 -0.6,0.2 -0.6,0.3 -0.6,0.3 -0.6,0.3 -0.6,0.3 -0.6,0.3 -0.6,0.4 -0.6,0.4 -0.6,0.4 -0.6,0.4 -0.6,0.4 -0.5,0.4 -0.5,0.4 -0.5,0.5 -0.5,0.5 -0.5,0.5 -0.5,0.5 -0.4,0.5 -0.5,0.5 -0.4,0.5 -0.4,0.5 -0.4,0.6 -0.4,0.6 -0.4,0.6 -0.4,0.6 -0.3,0.6 -0.3,0.6 -0.3,0.6 -0.3,0.6 -0.3,0.6 -0.3,0.6 -0.2,0.6 -0.2,0.6 -0.2,0.6 -0.2,0.7 -0.2,0.7 -0.2,0.7 -0.1,0.7 -0.1,0.7 -0.1,0.7 -0.1,0.7 -0.1,0.7 -0.1,0.7 v 0.7 0.7 0.7 0.7 l 0.1,0.7 0.1,0.7 0.1,0.7 0.1,0.7 0.1,0.7 0.1,0.7 0.2,0.7 0.2,0.7 0.2,0.7 0.2,0.7 0.2,0.6 0.2,0.6 0.3,0.6 0.3,0.6 0.3,0.6 0.3,0.6 0.2,0.4 v 0 l 0.8,-0.4 0.8,-0.4 0.9,-0.4 0.9,-0.4 0.9,-0.4 0.9,-0.3 0.9,-0.3 0.9,-0.3 0.9,-0.3 0.9,-0.3 0.9,-0.3 0.9,-0.2 0.9,-0.2 0.9,-0.2 0.9,-0.2 0.9,-0.2 0.9,-0.1 0.9,-0.1 0.9,-0.1 0.9,-0.1 0.9,-0.1 0.9,-0.1 h 0.9 1 0.9 57.5 l -59.7,-16.4 z"
         id="path5" /><path
         class="st0"
         d="m 334.7,342.7 h 0.7 0.7 0.7 l 0.7,-0.1 0.7,-0.1 0.7,-0.1 0.7,-0.1 0.7,-0.1 0.7,-0.1 0.7,-0.2 0.7,-0.2 0.7,-0.2 0.6,-0.2 0.6,-0.2 0.6,-0.3 0.6,-0.3 0.6,-0.3 0.6,-0.3 0.6,-0.3 0.6,-0.3 0.6,-0.4 0.6,-0.4 0.6,-0.4 0.6,-0.4 0.5,-0.4 0.5,-0.4 0.5,-0.5 0.5,-0.5 0.5,-0.5 0.5,-0.5 0.5,-0.5 0.5,-0.5 0.4,-0.5 0.4,-0.5 0.4,-0.6 0.4,-0.6 0.4,-0.6 0.4,-0.6 0.3,-0.6 0.3,-0.6 0.3,-0.6 0.3,-0.6 0.3,-0.6 0.3,-0.6 0.3,-0.6 0.2,-0.6 0.2,-0.7 0.2,-0.6 0.2,-0.7 0.2,-0.7 0.2,-0.7 0.1,-0.7 0.1,-0.7 0.1,-0.7 0.1,-0.7 0.1,-0.7 v -0.7 -0.7 -0.7 -0.7 -0.7 -0.7 l -0.1,-0.7 -0.1,-0.7 -0.3,-0.2 -0.1,-0.7 -0.1,-0.7 -0.2,-0.7 -0.2,-0.7 -0.2,-0.7 -0.2,-0.5 -0.2,-0.6 -0.2,-0.6 -0.3,-0.6 -0.3,-0.6 -0.3,-0.6 -0.3,-0.6 -0.2,-0.4 v 0 l -0.8,0.4 -0.8,0.4 -0.8,0.4 -0.9,0.4 -0.9,0.4 -0.9,0.4 -0.9,0.3 -0.9,0.3 -0.9,0.3 -0.9,0.3 -0.9,0.3 -0.9,0.2 -0.9,0.2 -0.9,0.2 -0.9,0.2 -0.9,0.2 -0.9,0.2 -0.9,0.1 -0.9,0.1 -0.9,0.1 -0.9,0.1 -0.9,0.1 h -0.9 -0.9 -0.9 -57.5 l 59.7,16.4 0.4,0.1 0.4,0.1 0.4,0.1 0.3,0.2 0.3,0.2 0.3,0.2 0.3,0.2 0.3,0.2 0.3,0.2 0.3,0.2 0.3,0.2 0.3,0.3 0.2,0.3 0.2,0.3 0.2,0.3 0.2,0.3 0.2,0.3 0.2,0.3 0.2,0.3 0.1,0.3 0.1,0.3 0.1,0.4 0.1,0.4 0.1,0.4 0.1,0.4 v 0.4 0.4 0.4 0.4 0.4 0.4 l -0.1,0.4 -0.1,0.4 -0.1,0.4 -0.1,0.4 -0.1,0.4 -0.1,0.3 -0.2,0.3 -0.2,0.3 -0.2,0.3 -0.2,0.3 -0.2,0.3 -0.2,0.3 -0.2,0.3 -0.3,0.3 -0.3,0.3 -0.3,0.2 -0.3,0.2 -0.3,0.2 -0.3,0.2 -0.3,0.2 -0.3,0.2 -0.3,0.2 -0.4,0.1 -0.4,0.1 -0.4,0.1 -0.4,0.1 -0.4,0.1 h -0.4 -0.4 -0.4 l -0.5,-0.1"
         id="path6" /><path
         class="st3"
         d="m 375,333 v -0.9 l -0.1,-0.9 -0.1,-0.9 -0.1,-0.9 -0.1,-0.8 -0.1,-0.9 -0.1,-0.8 -0.2,-0.8 -0.2,-0.8 -0.2,-0.8 -0.2,-0.8 -0.2,-0.8 -0.3,-0.8 -0.3,-0.8 -0.3,-0.8 -0.3,-0.8 -0.3,-0.8 -0.3,-0.8 -0.4,-0.8 -0.4,-0.8 -0.4,-0.8 -0.4,-0.8 -0.4,-0.7 -0.5,-0.7 -0.5,-0.7 -0.5,-0.7 -0.5,-0.7 -0.5,-0.7 -0.5,-0.7 -0.5,-0.7 -0.5,-0.7 -0.6,-0.6 -0.6,-0.6 -0.6,-0.6 -0.6,-0.6 -0.6,-0.6 -0.6,-0.6 -0.6,-0.6 -0.7,-0.6 -0.7,-0.5 v 0 l -0.9,0.6 -0.8,0.5 -0.9,0.5 -0.1,0.1 0.2,0.4 0.3,0.6 0.3,0.6 0.3,0.6 0.3,0.6 0.2,0.6 0.2,0.6 0.2,0.7 0.2,0.7 0.2,0.7 0.2,0.7 0.1,0.7 0.1,0.7 0.1,0.7 0.1,0.7 0.1,0.7 v 0.7 0.7 0.7 0.7 0.7 0.7 l -0.1,0.7 -0.1,0.7 -0.1,0.7 -0.1,0.7 -0.1,0.7 -0.2,0.7 -0.2,0.7 -0.2,0.7 -0.2,0.6 -0.2,0.7 -0.2,0.6 -0.3,0.6 -0.3,0.6 -0.3,0.6 -0.3,0.6 -0.3,0.6 -0.3,0.6 -0.4,0.6 -0.4,0.6 -0.4,0.6 -0.4,0.5 -0.4,0.5 -0.4,0.5 -0.5,0.1 -0.5,0.5 -0.5,0.5 -0.5,0.5 -0.5,0.5 -0.5,0.5 -0.5,0.5 -0.5,0.4 -0.5,0.4 -0.6,0.4 -0.6,0.4 -0.6,0.4 -0.6,0.4 -0.6,0.3 -0.6,0.3 -0.6,0.3 -0.6,0.3 -0.6,0.3 -0.6,0.1 -0.6,0.2 -0.7,0.2 -0.6,0.2 -0.7,0.2 -0.7,0.2 -0.7,0.1 -0.7,0.1 -0.7,0.1 -0.7,0.1 -0.7,0.1 -0.7,0.1 h -0.7 -0.7 -0.7 H 125 V 375 h 209.7 0.9 0.8 l 0.9,-0.1 0.9,-0.1 0.9,-0.1 0.9,-0.1 0.9,-0.1 0.8,-0.1 0.8,-0.1 0.8,-0.2 0.8,-0.2 0.8,-0.2 0.8,-0.2 0.8,-0.2 0.8,-0.2 0.8,-0.3 0.8,-0.3 0.8,-0.3 0.8,-0.3 0.8,-0.3 0.8,-0.4 0.8,-0.4 0.8,-0.4 0.7,-0.4 0.8,-0.4 0.7,-0.4 0.7,-0.5 0.7,-0.5 0.7,-0.5 0.7,-0.5 0.7,-0.5 0.7,-0.5 0.7,-0.5 0.7,-0.6 0.6,-0.6 0.6,-0.6 0.6,-0.6 0.6,-0.6 0.6,-0.6 0.6,-0.6 0.6,-0.6 0.5,-0.7 0.5,-0.7 0.5,-0.7 0.5,-0.7 0.5,-0.7 0.5,-0.7 0.5,-0.7 0.5,-0.7 0.4,-0.7 0.4,-0.8 0.4,-0.8 0.4,-0.8 0.4,-0.8 0.3,-0.8 0.3,-0.8 0.3,-0.8 0.3,-0.8 0.3,-0.8 0.3,-0.8 0.2,-0.8 0.2,-0.8 0.2,-0.8 0.2,-0.8 0.2,-0.8 0.1,-0.8 0.1,-0.8 0.1,-0.8 0.1,-0.8 0.1,-0.9 0.1,-0.9 v -0.8 -0.9 -0.9 -0.9 z"
         id="path7" /><path
         class="st4"
         d="m 125,167 v 0.9 l 0.1,0.8 0.1,0.9 0.1,0.8 0.1,0.8 0.1,0.8 0.2,0.8 0.2,0.8 0.2,0.8 0.2,0.8 0.2,0.8 0.2,0.8 0.3,0.8 0.3,0.8 0.3,0.8 0.3,0.8 0.3,0.8 0.4,0.8 0.4,0.8 0.4,0.8 0.4,0.8 0.4,0.8 0.4,0.7 0.5,0.7 0.5,0.7 0.5,0.7 0.5,0.7 0.5,0.7 0.5,0.7 0.5,0.7 0.5,0.7 0.6,0.6 0.6,0.6 0.6,0.6 0.6,0.6 0.6,0.6 0.6,0.6 0.6,0.6 0.7,0.6 0.7,0.5 v 0 l 0.9,-0.6 0.8,-0.5 0.9,-0.5 0.1,-0.1 -0.2,-0.4 -0.3,-0.6 -0.3,-0.6 -0.3,-0.6 -0.3,-0.6 -0.2,-0.6 -0.3,-0.3 -0.2,-0.7 -0.2,-0.6 -0.2,-0.7 -0.2,-0.7 -0.1,-0.7 -0.1,-0.6 -0.1,-0.7 -0.1,-0.7 -0.1,-0.7 -0.1,-0.7 v -0.7 -0.7 -0.7 -0.7 l 0.1,-0.7 0.1,-0.7 0.1,-0.7 0.1,-0.7 0.1,-0.7 0.1,-0.7 0.2,-0.7 0.2,-0.7 0.2,-0.7 0.2,-0.6 0.2,-0.6 0.2,-0.6 0.3,-0.6 0.3,-0.6 0.3,-0.6 0.3,-0.6 0.3,-0.6 0.3,-0.6 0.4,-0.6 0.4,-0.6 0.4,-0.6 0.4,-0.5 0.4,-0.6 0.4,-0.5 0.5,-0.5 0.5,-0.5 0.5,-0.5 0.5,-0.5 0.5,-0.5 0.5,-0.4 0.5,-0.5 0.5,-0.4 0.6,-0.4 0.6,-0.4 0.6,-0.4 0.6,-0.4 0.6,-0.4 0.6,-0.3 0.6,-0.3 0.6,-0.3 0.6,-0.3 0.6,-0.3 0.6,-0.2 0.7,-0.2 0.6,-0.2 0.7,-0.2 0.7,-0.2 0.7,-0.2 0.7,-0.1 0.7,-0.1 0.7,-0.1 0.7,-0.1 0.7,-0.1 0.7,-0.1 0.7,-0.1 h 0.7 0.7 H 375 V 125 h -209.7 -0.9 -0.9 -0.9 l -0.9,0.1 -0.9,0.1 -0.9,0.1 -0.8,0.1 -0.9,0.1 -0.8,0.2 -0.8,0.2 -0.8,0.2 -0.8,0.2 -0.8,0.2 -0.8,0.2 -0.8,0.2 -0.8,0.3 -0.8,0.3 -0.8,0.3 -0.8,0.3 -0.8,0.3 -0.8,0.4 -0.8,0.4 -0.8,0.4 -0.8,0.4 -0.7,0.4 -0.7,0.4 -0.7,0.5 -0.7,0.5 -0.7,0.5 -0.7,0.5 -0.7,0.5 -0.7,0.5 -0.7,0.5 -0.7,0.5 -0.6,0.6 -0.6,0.6 -0.6,0.6 -0.6,0.6 -0.6,0.6 -0.6,0.6 -0.6,0.7 -0.2,0.9 -0.5,0.7 -0.5,0.7 -0.5,0.7 -0.5,0.7 -0.5,0.7 -0.5,0.7 -0.5,0.7 -0.4,0.7 -0.4,0.8 -0.4,0.7 -0.4,0.8 -0.4,0.8 -0.4,0.8 -0.3,0.8 -0.3,0.8 -0.3,0.8 -0.3,0.8 -0.3,0.8 -0.2,0.8 -0.2,0.8 -0.2,0.8 -0.2,0.8 -0.2,0.8 -0.2,0.8 -0.1,0.9 -0.1,0.8 -0.1,0.8 -0.1,0.8 -0.1,0.9 v 0.8 0.8 0.9 0.9 z"
         id="path8" /><path
         class="st0"
         d="M 519.1,327.9 H 455 v -25.2 h 64.1 c 9.9,0 17.6,-1.9 22.9,-5.8 5.4,-3.8 8.1,-8.8 8.1,-14.9 0,-6.1 -2.5,-10.5 -7.6,-13.4 -5.1,-2.8 -12.6,-5.2 -22.5,-7 l -10.3,-1.8 c -10.1,-1.8 -19.4,-4.5 -27.7,-7.9 -8.3,-3.4 -14.9,-8.2 -19.8,-14.3 -4.9,-6.1 -7.3,-13.9 -7.3,-23.4 0,-14.2 5.3,-25.2 15.8,-33 10.5,-7.8 24.5,-11.7 41.9,-11.7 h 62.6 V 195 h -62.6 c -8.5,0 -15.2,1.6 -20.1,4.7 -4.9,3.1 -7.3,7.5 -7.3,13.2 0,6.1 2.4,10.5 7.1,13.4 4.8,2.8 11.2,5 19.3,6.4 l 10.6,1.8 c 10.7,1.8 20.6,4.4 29.5,7.6 8.9,3.2 16,7.9 21.1,14 5.2,6.1 7.7,14.2 7.7,24.3 0,15 -5.6,26.6 -16.7,35 -10.8,8.3 -25.8,12.5 -44.7,12.5 z"
         id="path9" /><path
         class="st0"
         d="m 907.6,374 v -70.7 h -4.9 c -2.2,4.1 -5.5,8 -9.7,11.7 -4.3,3.8 -9.7,6.8 -16.3,9.3 -6.6,2.4 -14.7,3.7 -24.5,3.7 -12.6,0 -24.1,-3 -34.7,-9.1 -10.5,-6.1 -18.9,-14.8 -25.2,-26.3 -6.3,-11.4 -9.4,-25.3 -9.4,-41.5 v -4.6 c 0,-16.2 3.2,-30 9.6,-41.5 6.4,-11.4 14.8,-20.2 25.4,-26.3 10.5,-6.1 22,-9.1 34.3,-9.1 14.6,0 25.8,2.6 33.6,7.9 7.8,5.3 13.6,11.2 17.5,17.9 h 4.9 v -25.8 h 30.7 V 374 Z m -46.5,-73.5 c 13.8,0 25,-4.4 33.7,-13.1 8.7,-8.7 13.1,-21.2 13.1,-37.4 v -2.7 c 0,-16 -4.4,-28.4 -13.2,-37.1 -8.8,-8.7 -20,-13.1 -33.6,-13.1 -13.6,0 -24.5,4.4 -33.3,13.1 -8.8,8.7 -13.2,21.1 -13.2,37.1 v 2.7 c 0,16.2 4.4,28.7 13.2,37.4 8.8,8.8 19.9,13.1 33.3,13.1 z"
         id="path10" /><path
         class="st0"
         d="m 753,245.5 c 0,-15.2 -3,-28.5 -9.1,-39.8 -6.1,-11.3 -14.5,-20.2 -25.4,-26.6 -10.8,-6.4 -23.5,-9.6 -37.8,-9.6 -14.4,0 -27.8,3.2 -38.9,9.7 -5.6,3.2 -10.5,7.1 -14.9,11.6 -0.6,0.6 -1.1,1.1 -1.6,1.7 -1.6,1.8 -3.1,3.6 -4.5,5.5 -1.9,2.6 -3.6,5.3 -5.2,8.2 -6.4,11.5 -9.6,25.1 -9.6,40.7 v 3.6 c 0,15.6 3.2,29.2 9.6,40.7 6.4,11.5 15.2,20.5 26.6,26.9 11.3,6.4 24.6,9.6 39.8,9.6 13.4,0 24.5,-2.1 33.4,-6.4 8.9,-4.3 16,-9.5 21.3,-15.8 1.5,-1.7 2.8,-3.5 4.1,-5.2 3.4,-4.4 6.1,-8.7 8.3,-12.8 L 723,274.1 c -3.2,6.9 -7.9,13 -13.8,18.2 -6,5.3 -14.8,7.9 -26.6,7.9 -12.6,0 -23.1,-3.9 -31.5,-11.7 -0.5,-0.5 -1,-1 -1.5,-1.5 -0.5,-0.5 -1,-1 -1.4,-1.6 -1.1,-1.3 -2.2,-2.6 -3.1,-4.1 -4.1,-6.1 -6.4,-13.4 -7,-21.9 -0.1,-0.8 -0.1,-1.6 -0.1,-2.5 h 115 z m -94.3,-12.2 -16,16 h -5.3 c -0.1,-4.6 0,-10.5 0.6,-16 0.3,-2.1 0.7,-4.1 1.2,-6 0.5,-1.9 1.1,-3.8 1.8,-5.5 2.4,-5.9 5.9,-10.8 10.5,-14.9 7.4,-6.5 17,-9.7 28.7,-9.7 11.8,0 21.3,3.2 28.6,9.7 7.3,6.5 11.5,15.3 12.5,26.4 z"
         id="path11" /><path
         class="st0"
         d="m 1116,245.5 c 0,-15.2 -3,-28.5 -9.1,-39.8 -6.1,-11.3 -14.5,-20.2 -25.4,-26.6 -10.8,-6.4 -23.5,-9.6 -37.8,-9.6 -14.4,0 -27.8,3.2 -38.9,9.7 -5.6,3.2 -10.5,7.1 -14.9,11.6 -0.5,0.6 -1.1,1.1 -1.6,1.7 -1.6,1.8 -3.1,3.6 -4.5,5.5 -1.9,2.6 -3.6,5.3 -5.2,8.2 -6.4,11.5 -9.6,25.1 -9.6,40.7 v 3.6 c 0,15.6 3.2,29.2 9.6,40.7 6.4,11.5 15.2,20.5 26.6,26.9 11.3,6.4 24.6,9.6 39.8,9.6 13.4,0 24.5,-2.1 33.4,-6.4 8.9,-4.3 16,-9.5 21.3,-15.8 1.5,-1.7 2.8,-3.5 4.1,-5.2 3.4,-4.4 6.1,-8.7 8.3,-12.8 L 1086,274.1 c -3.2,6.9 -7.9,13 -13.8,18.2 -6,5.3 -14.8,7.9 -26.6,7.9 -12.6,0 -23.1,-3.9 -31.5,-11.7 -0.5,-0.5 -1,-1 -1.5,-1.5 -0.5,-0.5 -1,-1 -1.4,-1.6 -1.1,-1.3 -2.2,-2.6 -3.1,-4.1 -4.1,-6.1 -6.4,-13.4 -7,-21.9 -0.1,-0.8 -0.1,-1.6 -0.1,-2.5 h 115 z m -94.2,-12.2 -16,16 h -5.3 c -0.1,-4.6 0,-10.5 0.6,-16 0.3,-2.1 0.7,-4.1 1.2,-6 0.5,-1.9 1.1,-3.8 1.8,-5.5 2.4,-5.9 5.9,-10.8 10.5,-14.9 7.4,-6.5 17,-9.7 28.7,-9.7 11.7,0 21.3,3.2 28.6,9.7 7.3,6.5 11.4,15.3 12.5,26.4 z"
         id="path12" /><path
         class="st0"
         d="M 1146,327.9 V 169.5 h 30.7 v 17.6 h 4.9 c 2.4,-6.3 6.3,-10.9 11.7,-13.8 5.4,-2.9 12,-4.4 19.9,-4.4 h 17.9 v 28.3 H 1212 c -10.1,0 -18.4,2.8 -24.9,8.4 -6.5,5.6 -9.7,14.1 -9.7,25.7 V 328 Z"
         id="path13" /><path
         class="st0"
         d="m 1382.2,226.3 c 0,-18.3 -5.6,-32.5 -16.8,-42.4 -11.2,-10 -26.6,-15 -46.1,-15 -12.8,0 -23.7,2 -32.5,6.1 -8.8,4.1 -16,9.5 -21.4,16.2 -5.4,6.7 -9.3,14 -11.8,22 l 29.3,9.5 c 1.8,-8.1 5.6,-14.8 11.3,-19.8 5.7,-5.1 13.9,-7.6 24.7,-7.6 10.8,0 19.1,2.7 24.4,8.1 5.3,5.4 7.9,12.4 7.9,20.9 v 26 h -5.1 L 1329.8,234 h -24.4 c -16.5,0 -30.2,3.9 -41.1,11.8 -10.9,7.8 -16.3,19.4 -16.3,34.7 0,10.2 2.5,18.8 7.5,25.9 5,7.1 11.7,12.5 20.2,16.2 8.5,3.7 18.1,5.5 28.8,5.5 10.7,0 18.7,-1.5 25,-4.4 6.3,-2.9 11.1,-6.4 14.3,-10.4 3.3,-4 5.7,-7.6 7.3,-10.8 h 4.9 V 328 h 25.9 z m -30.9,35.1 c 0,12.6 -3.9,22.5 -11.8,29.8 -7.8,7.2 -17.9,10.8 -30.4,10.8 -9.2,0 -16.4,-2 -21.7,-6.1 -5.3,-4.1 -7.9,-9.6 -7.9,-16.5 0,-6.9 2.6,-12.2 7.6,-15.7 5.1,-3.6 11.8,-5.3 20.2,-5.3 h 44 z"
         id="path14" /></g></g><style
     type="text/css"
     id="style1">
	.st0{fill:#FFFFFF;}
	.st1{fill:#FA6863;}
	.st2{fill:#F18046;}
	.st3{fill:#3D95FD;}
	.st4{fill:#0DC09D;}
</style></svg>
