<?xml version="1.0" encoding="UTF-8" standalone="no"?>
<!-- Created with Inkscape (http://www.inkscape.org/) -->

<svg
   width="1402"
   height="714"
   viewBox="0 0 370.94582 188.9125"
   version="1.1"
   id="svg1"
   xml:space="preserve"
   sodipodi:docname="ticket_raffle.svg"
   inkscape:version="1.3.2 (1:1.3.2+202311252150+091e20ef0f)"
   xmlns:inkscape="http://www.inkscape.org/namespaces/inkscape"
   xmlns:sodipodi="http://sodipodi.sourceforge.net/DTD/sodipodi-0.dtd"
   xmlns="http://www.w3.org/2000/svg"
   xmlns:svg="http://www.w3.org/2000/svg"><sodipodi:namedview
     id="namedview1"
     pagecolor="#ffffff"
     bordercolor="#000000"
     borderopacity="0.25"
     inkscape:showpageshadow="2"
     inkscape:pageopacity="0.0"
     inkscape:pagecheckerboard="0"
     inkscape:deskcolor="#d1d1d1"
     inkscape:document-units="mm"
     inkscape:zoom="0.56000615"
     inkscape:cx="449.10221"
     inkscape:cy="324.10358"
     inkscape:window-width="1920"
     inkscape:window-height="1128"
     inkscape:window-x="0"
     inkscape:window-y="0"
     inkscape:window-maximized="1"
     inkscape:current-layer="layer1" /><defs
     id="defs1"><rect
       x="405.96304"
       y="130.14759"
       width="596.54845"
       height="95.351725"
       id="rect12" /><rect
       x="405.96304"
       y="130.14759"
       width="596.54845"
       height="95.351725"
       id="rect13" /><rect
       x="405.96304"
       y="130.14759"
       width="786.56396"
       height="100.21606"
       id="rect14" /></defs><g
     inkscape:label="Layer 1"
     inkscape:groupmode="layer"
     id="layer1"><path
       id="rect10"
       style="fill:none;fill-opacity:1;stroke:#1fba9b;stroke-width:4;stroke-linecap:round;stroke-linejoin:round;stroke-opacity:1"
       d="M 65.532434 24.188188 A 31.679798 31.679798 0 0 1 38.648287 52.612809 L 38.648287 134.53959 A 31.679798 31.679798 0 0 1 65.624418 164.72431 L 306.91667 164.72431 A 31.679798 31.679798 0 0 1 332.29755 135.12457 L 332.29755 52.027832 A 31.679798 31.679798 0 0 1 307.19572 24.188188 L 65.532434 24.188188 z " /><g
       id="g4"
       transform="matrix(0.22667862,0,0,0.22667862,18.112814,35.09032)"><path
         class="st0"
         d="m 124.5,171.5 c 39.4,2.6 71.1,34.3 73.5,73.8 h 46.1 c -2.6,-65 -54.7,-117.2 -119.6,-119.9 z"
         id="path1" /><path
         class="st0"
         d="m 198.3,255.8 c -2.6,39.4 -34.3,71.1 -73.8,73.5 v 46.1 c 65,-2.6 117.2,-54.7 119.9,-119.6 z"
         id="path2" /><path
         class="st0"
         d="m 300.7,245 c 2.6,-39.5 34.3,-71.1 73.8,-73.5 V 125.4 C 309.5,128 257.3,180.1 254.6,245 Z"
         id="path3" /><path
         class="st0"
         d="M 374.5,329.4 C 335.1,326.8 303.4,295.1 301,255.6 h -46.1 c 2.6,65 54.7,117.2 119.6,119.9 z"
         id="path4" /></g></g><style
     type="text/css"
     id="style1">
	.st0{fill:#FFFFFF;}
	.st1{fill:#FA6863;}
	.st2{fill:#F18046;}
	.st3{fill:#3D95FD;}
	.st4{fill:#0DC09D;}
</style><style
     type="text/css"
     id="style1-0">
	.st0{fill:#0DC09D;}
</style></svg>
