<?xml version="1.0" encoding="UTF-8" standalone="no"?>
<!-- Created with Inkscape (http://www.inkscape.org/) -->

<svg
   width="1402"
   height="714"
   viewBox="0 0 370.94582 188.9125"
   version="1.1"
   id="svg1"
   xml:space="preserve"
   inkscape:version="1.3.2 (1:1.3.2+202311252150+091e20ef0f)"
   sodipodi:docname="ticket_background.svg"
   xmlns:inkscape="http://www.inkscape.org/namespaces/inkscape"
   xmlns:sodipodi="http://sodipodi.sourceforge.net/DTD/sodipodi-0.dtd"
   xmlns="http://www.w3.org/2000/svg"
   xmlns:svg="http://www.w3.org/2000/svg"><sodipodi:namedview
     id="namedview1"
     pagecolor="#ffffff"
     bordercolor="#000000"
     borderopacity="0.25"
     inkscape:showpageshadow="2"
     inkscape:pageopacity="0.0"
     inkscape:pagecheckerboard="0"
     inkscape:deskcolor="#d1d1d1"
     inkscape:document-units="mm"
     inkscape:zoom="0.39598415"
     inkscape:cx="483.60522"
     inkscape:cy="-89.650054"
     inkscape:window-width="1920"
     inkscape:window-height="1128"
     inkscape:window-x="0"
     inkscape:window-y="0"
     inkscape:window-maximized="1"
     inkscape:current-layer="layer1" /><defs
     id="defs1" /><g
     inkscape:label="Layer 1"
     inkscape:groupmode="layer"
     id="layer1"><rect
       style="fill:#180f28;stroke-width:5.35525;stroke-linecap:round;stroke-linejoin:round;fill-opacity:1"
       id="rect1"
       width="370.94583"
       height="188.91251"
       x="1.0172525e-06"
       y="-3.0517579e-06" /><path
       id="path1"
       style="fill:#ffffff;fill-opacity:1;stroke-width:5.51396;stroke-linecap:round;stroke-linejoin:round;stroke:#ffffff"
       d="M 0 0 L 0 35.623149 A 35.432346 35.432346 0 0 0 31.737081 0.39790853 A 35.432346 35.432346 0 0 0 31.71486 0 L 0 0 z M 339.2718 0 A 35.432346 35.432346 0 0 0 339.20875 0.39790853 A 35.432346 35.432346 0 0 0 370.94583 35.245394 L 370.94583 0 L 339.2718 0 z M 0 53.490792 L 0 85.415458 A 23.68499 16.74954 0 0 0 17.183447 69.325484 A 23.68499 16.74954 0 0 0 0 53.490792 z M 370.94583 53.490792 A 23.68499 16.74954 0 0 0 353.76239 69.325484 A 23.68499 16.74954 0 0 0 370.94583 85.160693 L 370.94583 53.490792 z M 0 103.49704 L 0 135.42171 A 23.68499 16.74954 0 0 0 17.183447 119.58702 A 23.68499 16.74954 0 0 0 0 103.49704 z M 370.94583 103.75181 A 23.68499 16.74954 0 0 0 353.76239 119.58702 A 23.68499 16.74954 0 0 0 370.94583 135.42171 L 370.94583 103.75181 z M 0 153.28935 L 0 188.9125 L 31.71486 188.9125 A 35.432346 35.432346 0 0 0 31.737081 188.51459 A 35.432346 35.432346 0 0 0 0 153.28935 z M 370.94583 153.66711 A 35.432346 35.432346 0 0 0 339.20875 188.51459 A 35.432346 35.432346 0 0 0 339.2718 188.9125 L 370.94583 188.9125 L 370.94583 153.66711 z " /></g></svg>
